HIERARCHY
ROOT Hips
{
  OFFSET 0 89.5177 0.535
  CHANNELS 6 Xposition Yposition Zposition Zrotation Xrotation Yrotation
  JOINT Spine
  {
    OFFSET 12.0259 -0.162855 1.69034e-005
    CHANNELS 3 Zrotation Xrotation Yrotation
    JOINT Spine1
    {
      OFFSET 15.3169 -0.0121922 0
      CHANNELS 3 Zrotation Xrotation Yrotation
      JOINT Spine2
      {
        OFFSET 15.3176 -0.0121908 0
        CHANNELS 3 Zrotation Xrotation Yrotation
        JOINT Neck
        {
          OFFSET 19.9142 1.56338 0
          CHANNELS 3 Zrotation Xrotation Yrotation
          JOINT Head
          {
            OFFSET 6.92651 0 0
            CHANNELS 3 Zrotation Xrotation Yrotation
            End Site
            {
              OFFSET 20.7666 0 0
            }
          }
          JOINT LeftShoulder
          {
            OFFSET -6.20654 0.708824 7.28219
            CHANNELS 3 Zrotation Xrotation Yrotation
            JOINT LeftArm
            {
              OFFSET 14.108 0 -1.52588e-005
              CHANNELS 3 Zrotation Xrotation Yrotation
              JOINT LeftForeArm
              {
                OFFSET 28.5802 0 0
                CHANNELS 3 Zrotation Xrotation Yrotation
                JOINT LeftHand
                {
                  OFFSET 27.092 0 0
                  CHANNELS 3 Zrotation Xrotation Yrotation
                  End Site
                  {
                    OFFSET 9.55928 -0.186424 0.145352
                  }
                }
              }
            }
          }
          JOINT RightShoulder
          {
            OFFSET -6.20654 0.708866 -7.28218
            CHANNELS 3 Zrotation Xrotation Yrotation
            JOINT RightArm
            {
              OFFSET 14.108 0 1.52588e-005
              CHANNELS 3 Zrotation Xrotation Yrotation
              JOINT RightForeArm
              {
                OFFSET 28.5802 0 0
                CHANNELS 3 Zrotation Xrotation Yrotation
                JOINT RightHand
                {
                  OFFSET 27.092 0 0
                  CHANNELS 3 Zrotation Xrotation Yrotation
                  End Site
                  {
                    OFFSET 9.55929 -0.186417 -0.145354
                  }
                }
              }
            }
          }
        }
      }
    }
  }
  JOINT LeftUpLeg
  {
    OFFSET 0.005 -0.535 8.837
    CHANNELS 3 Zrotation Xrotation Yrotation
    JOINT LeftLeg
    {
      OFFSET 39.9035 0 0
      CHANNELS 3 Zrotation Xrotation Yrotation
      JOINT LeftFoot
      {
        OFFSET 39.6689 0 0
        CHANNELS 3 Zrotation Xrotation Yrotation
        JOINT LeftToe
        {
          OFFSET 10.1624 13.6296 0
          CHANNELS 3 Zrotation Xrotation Yrotation
          End Site
          {
            OFFSET 8.38147 0 0
          }
        }
      }
    }
  }
  JOINT RightUpLeg
  {
    OFFSET 0.005 -0.535 -8.837
    CHANNELS 3 Zrotation Xrotation Yrotation
    JOINT RightLeg
    {
      OFFSET 39.9035 0 0
      CHANNELS 3 Zrotation Xrotation Yrotation
      JOINT RightFoot
      {
        OFFSET 39.6689 0 0
        CHANNELS 3 Zrotation Xrotation Yrotation
        JOINT RightToe
        {
          OFFSET 10.1624 13.6296 0
          CHANNELS 3 Zrotation Xrotation Yrotation
          End Site
          {
            OFFSET 8.38147 0 0
          }
        }
      }
    }
  }
}
MOTION
Frames:	19
Frame Time:	0.0333333
139.606 87.9219 43.6555 92.537 -13.7704 -0.786413 1.45897 -1.90025 0.753323 2.94523 -3.78004 1.55626 2.94523 -3.78004 1.55625 -8.30589e-012 -9.0191e-006 -5.27751e-005 -17.4993 -1.57403 2.02706 -179.213 -2.20725 -70.3763 -12.1401 -9.62292 57.2434 -22.783 -3.18055e-015 9.93923e-016 -26.1176 -38.1102 -33.6673 -178.299 4.55054 69.4786 9.24137 1.15834 -60.9671 -67.2232 -1.59028e-015 -9.54166e-015 -45.5876 46.8425 49.1193 7.67518 -2.66996 178.435 -12.9943 0 -7.95139e-016 25.9881 16.3061 -18.7756 90 3.18055e-015 6.36111e-015 -22.2418 -22.1788 -175.367 -13.3992 6.36111e-015 3.97569e-015 -1.52028 -9.86348 11.0757 90 1.59028e-015 -3.18055e-015 
136.357 87.3088 43.2435 92.0861 -13.5198 -1.27248 1.38863 -2.03759 1.07792 2.81804 -4.0476 2.20719 2.81804 -4.0476 2.20718 -8.30828e-012 -9.0191e-006 -5.27751e-005 -15.6041 -1.61175 0.8499 -179.29 -2.0227 -70.659 -11.2454 -8.55148 58.8866 -24.5576 -9.54166e-015 -4.77083e-015 -26.3971 -39.1146 -34.2007 -178.153 4.86498 69.1774 10.2215 0.990189 -60.0234 -68.6286 3.18055e-015 -0 -46.7334 47.0113 50.5436 7.22626 -0.125097 179.287 -18.6423 -1.59028e-015 -0 27.8525 18.7445 -23.1244 90 0 -3.18055e-015 -21.4534 -20.5405 -173.717 -15.5235 0 -7.95139e-016 -1.04966 -4.93706 4.66753 90 1.59028e-015 6.36111e-015 
133.466 86.781 42.9066 92.0411 -14.1667 -1.7428 1.333 -1.93994 1.43736 2.71659 -3.84479 2.92214 2.71659 -3.84479 2.92213 -8.3051e-012 -9.0191e-006 -5.27751e-005 -14.6028 -2.12086 -0.380174 -179.2 -2.23636 -70.3001 -11.9027 -7.63558 59.5568 -26.2654 -6.36111e-015 -7.95139e-016 -27.0906 -39.8157 -34.7235 -177.971 5.13677 68.4155 10.6053 2.41591 -58.43 -69.1185 0 -3.18055e-015 -47.6844 46.4863 51.4782 2.6199 4.25743 -179.007 -30.3149 1.59028e-015 7.95139e-016 28.2687 22.4418 -28.3648 90 0 -9.54166e-015 -22.8577 -13.1894 -172.299 -20.4596 -3.18056e-015 -4.77083e-015 0.0473902 2.00903 -2.2257 90 7.95139e-016 -0 
130.733 86.7304 42.6217 91.3983 -15.5238 -3.41265 1.54278 -1.72103 1.98969 3.1465 -3.38631 4.02783 3.1465 -3.38631 4.02782 -8.30907e-012 -9.0191e-006 -5.27751e-005 -14.3079 -2.65241 -1.43817 -179.084 -2.48463 -69.7566 -11.7552 -8.13093 60.4826 -27.1305 0 -3.57812e-015 -28.2061 -38.786 -34.8032 -178.132 4.6785 68.2043 10.3449 5.49372 -57.2381 -67.4171 -1.59028e-015 6.36111e-015 -49.0038 45.009 52.45 -3.3787 8.61937 -175.113 -43.4267 7.95139e-016 2.38542e-015 24.9864 26.5101 -32.3944 90 -6.36111e-015 -6.36111e-015 -22.5466 -10.3822 -170.575 -24.3945 -3.18056e-015 -1.59028e-015 1.80681 3.47388 -3.88936 90 0 -0 
128.428 86.6723 42.2389 91.6862 -15.7101 -4.17329 1.51842 -1.80663 2.30799 3.11069 -3.54949 4.6666 3.11069 -3.54949 4.66659 -8.30748e-012 -9.0191e-006 -5.27751e-005 -13.9857 -3.90526 -1.43335 -179.031 -2.69259 -70.1898 -11.0777 -7.97987 61.8687 -28.4906 0 -7.95139e-016 -28.9503 -38.2411 -35.1602 -178.416 3.98197 68.2874 9.69515 9.02062 -56.4842 -65.3838 3.18055e-015 -6.36111e-015 -49.1801 44.8032 52.6658 -11.2308 9.26789 -170.874 -54.8799 7.95139e-016 -0 16.5152 30.4161 -37.7803 90 -3.18055e-015 -0 -20.8725 -13.3488 -170.666 -25.4012 0 -1.59028e-015 6.17291 0.552818 -0.636596 90 0 6.36111e-015 
126.555 87.1473 41.9077 92.507 -17.3047 -3.98126 1.48539 -1.49282 2.39512 3.03338 -2.92125 4.83066 3.03338 -2.92125 4.83065 -8.30589e-012 -9.0191e-006 -5.27751e-005 -14.0882 -5.83214 -1.09903 -179.207 -2.26897 -70.7372 -11.0345 -7.47868 62.7049 -30.152 3.18055e-015 7.95139e-016 -29.0814 -38.0163 -35.1898 -178.52 3.74193 68.4027 8.41705 13.3254 -55.5927 -63.9106 6.36111e-015 9.54166e-015 -48.7872 44.5821 52.3497 -17.5931 9.06909 -168.543 -59.6682 1.98785e-016 7.95139e-016 11.4434 29.1467 -36.9449 90 3.18055e-015 -6.36111e-015 -19.1956 -13.5945 -170.533 -23.797 6.36111e-015 -0 7.76299 -1.4174 1.59876 90 -2.38542e-015 3.18055e-015 
124.795 88.0488 41.5968 93.3745 -20.3158 -2.56633 1.47642 -1.11814 2.09808 2.99362 -2.18062 4.22559 2.99362 -2.18062 4.22558 -8.30589e-012 -9.0191e-006 -5.27751e-005 -14.6642 -6.90991 -0.180264 -179.139 -2.47338 -70.8066 -10.9595 -6.44484 62.0862 -32.3512 6.36111e-015 3.18055e-015 -29.0872 -38.1785 -34.9086 -178.759 3.16039 68.5423 6.73012 17.2875 -55.1869 -63.024 -1.59028e-015 -0 -48.7572 43.7888 52.0435 -21.7393 9.69059 -168.384 -59.7337 7.95139e-016 -1.59028e-015 11.6539 22.767 -25.6475 90 -7.95139e-015 -3.18055e-015 -17.6189 -9.40515 -170.417 -20.3817 -3.18056e-015 -1.59028e-015 6.73246 -1.01048 1.16012 90 0 -3.18055e-015 
123.018 88.9546 41.3623 94.2641 -22.4273 -0.698122 1.51608 -1.05201 1.64924 3.06255 -2.0591 3.32671 3.06255 -2.0591 3.3267 -8.30828e-012 -9.0191e-006 -5.27751e-005 -15.848 -7.62155 0.908155 -179.212 -2.26894 -70.8419 -10.0937 -4.9627 60.7009 -34.5865 6.36111e-015 7.95139e-016 -29.8404 -38.8732 -35.4684 -178.984 2.69055 69.3032 5.14296 20.7316 -55.8901 -63.3176 0 -0 -48.9889 43.4308 52.1291 -22.8717 8.54427 -169.793 -52.7706 2.38542e-015 3.18055e-015 11.5393 15.2277 -13.6209 90 -1.59028e-015 3.18055e-015 -15.6912 -7.35961 -171.543 -16.8393 -3.18056e-015 -1.59028e-015 6.32354 -1.89577 2.17087 90 -7.95139e-016 -3.18055e-015 
121.261 89.4675 41.1156 95.4782 -24.5096 0.84567 1.49675 -0.921354 1.26443 3.01403 -1.80866 2.55313 3.01403 -1.80866 2.55312 -8.30589e-012 -9.0191e-006 -5.27751e-005 -16.9873 -8.69271 1.72576 -179.48 -1.53759 -71.2968 -8.91078 -3.91972 59.6731 -35.283 -6.36111e-015 -0 -30.4979 -38.8418 -35.7113 -179.036 2.72165 70.4974 3.66717 23.2345 -56.3036 -65.3709 2.78299e-015 -6.36111e-015 -49.2923 44 52.8407 -21.2648 5.72328 -170.641 -38.9616 0 1.59028e-015 8.70228 8.17499 -5.10644 90 -1.59028e-015 -0 -14.8171 -7.07359 -172.733 -15.2852 6.36111e-015 -0 7.27243 -4.15491 4.7425 90 3.18055e-015 -6.36111e-015 
119.481 89.3969 40.6829 96.7145 -28.0119 1.45403 1.4415 -0.609485 1.06335 2.89431 -1.19144 2.14202 2.89431 -1.19145 2.14201 -8.30669e-012 -9.0191e-006 -5.27751e-005 -17.7077 -9.42764 2.51329 -179.558 -1.33131 -71.6469 -7.7832 -3.45054 58.6889 -34.7611 9.54166e-015 5.56597e-015 -30.5056 -38.7918 -35.643 -179.049 2.83823 71.4696 1.2703 24.8443 -55.1895 -68.2623 9.93923e-017 -6.36111e-015 -49.807 44.2312 53.5503 -18.1007 3.13541 -168.672 -23.4209 6.36111e-015 -0 6.6149 2.58982 -3.3821 90 7.95139e-016 -0 -15.5713 -6.28255 -172.789 -17.1876 -9.54167e-015 -1.59028e-015 9.53776 -6.70795 7.51791 90 1.59028e-015 -0 
117.694 88.9238 40.1992 97.7909 -32.2252 1.78079 1.37564 -0.425305 0.968458 2.75838 -0.826702 1.94708 2.75838 -0.826702 1.94707 -8.30589e-012 -9.0191e-006 -5.27751e-005 -18.5324 -9.10516 3.24635 -179.362 -1.90764 -71.5077 -6.37165 -3.37773 57.5086 -33.5581 6.36111e-015 3.18055e-015 -29.739 -38.919 -35.2495 -179.039 2.96858 72.0469 -2.53181 26.4634 -52.827 -70.9362 -2.38542e-015 9.54166e-015 -49.2631 43.8308 52.6364 -15.9472 3.98466 -165.587 -14.7066 0 -1.59028e-015 4.10571 4.3128 -5.53797 90 0 3.18055e-015 -17.8353 -6.0017 -172.703 -22.4287 -3.18056e-015 1.59028e-015 12.7474 -9.63987 10.833 90 -4.77083e-015 -6.36111e-015 
115.762 88.4405 39.8982 98.0073 -35.756 3.14102 1.46038 -0.597267 0.567359 2.92683 -1.17937 1.15 2.92683 -1.17937 1.14999 -8.31225e-012 -9.0191e-006 -5.27751e-005 -19.2741 -8.51139 3.99345 -179.128 -2.53203 -70.9973 -4.70262 -3.99309 55.7414 -30.9057 9.54166e-015 3.97569e-016 -29.7305 -39.1989 -35.6558 -178.96 3.23714 72.174 -7.27728 28.3372 -50.3324 -72.5215 2.38542e-015 1.27222e-014 -49.2276 42.5658 51.7727 -14.7528 7.97803 -165.421 -15.6312 0 -0 6.50448 8.07118 -9.33233 90 0 6.36111e-015 -20.8348 -6.73063 -174.841 -29.9403 3.18056e-015 3.18056e-015 15.2368 -12.7756 14.9163 90 0 -6.36111e-015 
113.882 88.2787 39.7331 98.1412 -37.9973 4.71955 1.6056 -0.866339 0.0883434 3.21308 -1.72938 0.201117 3.21308 -1.72939 0.201108 -8.30669e-012 -9.0191e-006 -5.27751e-005 -20.2258 -9.02224 4.7113 -179.297 -1.93277 -70.0102 -3.92732 -5.25161 52.8714 -25.5924 6.36111e-015 3.08116e-015 -29.7379 -39.8232 -36.2275 -178.884 3.55596 72.5613 -9.53334 29.9228 -49.7875 -74.2779 -6.36111e-015 3.18055e-015 -49.2514 42.0578 51.3593 -13.1772 9.27066 -167.383 -16.7618 -3.18055e-015 -3.18055e-015 8.96587 6.26649 -7.61036 90 3.97569e-016 -3.18055e-015 -25.6119 -9.27807 -178.547 -39.1339 -1.27222e-014 -3.18056e-015 13.5898 -16.1619 19.0587 90 3.18055e-015 6.36111e-015 
112.158 88.3247 39.3843 99.2041 -39.6553 5.04391 1.55446 -0.937839 0.0629897 3.11058 -1.87315 0.151586 3.11058 -1.87315 0.151576 -8.30828e-012 -9.0191e-006 -5.27751e-005 -20.69 -10.5348 4.70239 -179.761 -0.632563 -69.2787 -3.30082 -8.29385 50.9356 -17.4768 6.36111e-015 9.54166e-015 -27.8468 -39.1044 -35.3972 -178.853 3.78359 73.1257 -9.26671 30.2595 -49.7251 -76.7315 -1.59028e-015 -0 -49.2136 43.0894 51.8854 -12.7819 10.368 -167.455 -17.5006 6.36111e-015 1.59028e-015 10.8642 5.04854 -6.39435 90 -1.59028e-015 6.36111e-015 -30.9356 -13.6512 179.114 -47.1063 6.36111e-015 4.77083e-015 9.76324 -17.5516 18.1642 90 -9.54166e-015 -0 
110.368 88.5658 38.4519 99.2173 -41.5898 4.20918 1.58508 -0.931513 0.253481 3.17489 -1.85517 0.532895 3.17489 -1.85517 0.532885 -8.30987e-012 -9.0191e-006 -5.27751e-005 -20.8967 -11.556 4.05313 -179.986 -0.0369042 -69.3687 0.512464 -14.5105 51.9349 -9.92538 -3.18055e-015 -0 -24.9125 -32.2162 -31.8314 -178.752 4.15556 73.2723 -10.4305 29.9035 -47.4507 -78.2848 -4.77083e-015 3.18055e-015 -49.7599 44.4626 53.3456 -10.8262 11.6191 -166.677 -17.1581 3.18055e-015 -1.59028e-015 11.9395 4.53576 -5.90637 90 -1.59028e-015 6.36111e-015 -33.608 -17.364 177.241 -49.6112 -9.54167e-015 -0 5.82158 -18.3547 20.4675 90 -3.18055e-015 -3.18055e-015 
108.626 88.7542 37.2698 99.9479 -43.4884 3.85265 1.49042 -0.953084 0.495698 2.98965 -1.89244 1.01639 2.98965 -1.89244 1.01638 -8.30828e-012 -9.0191e-006 -5.27751e-005 -21.2613 -11.8092 3.71076 -179.851 -0.407179 -69.8947 2.47835 -16.6497 53.4763 -8.91709 -2.54444e-014 -2.38542e-015 -23.6331 -28.6926 -31.6283 -178.638 4.58721 73.439 -12.4742 30.0139 -44.6638 -78.6395 -4.77083e-015 3.18055e-015 -48.6934 45.7129 52.6775 -8.76439 11.6737 -166.337 -16.5034 -3.18055e-015 -1.59028e-015 13.3865 2.37981 -3.67277 90 -7.95139e-016 6.36111e-015 -35.2984 -19.8373 176.284 -47.3284 9.54167e-015 1.59028e-015 6.22431 -19.0863 22.5465 90 0 -1.27222e-014 
107.002 88.8579 36.0071 101.047 -45.0334 3.98018 1.42608 -1.00688 0.707134 2.86513 -1.9953 1.43959 2.86513 -1.9953 1.43959 -8.31066e-012 -9.0191e-006 -5.27751e-005 -22.6059 -12.0736 3.83906 -179.711 -0.825295 -70.7158 1.63419 -15.2912 54.3191 -11.6851 6.36111e-015 -1.98785e-015 -22.4458 -28.6157 -30.7152 -178.587 4.868 73.7951 -14.1625 31.3461 -42.5837 -78.5278 -4.77083e-015 -0 -47.2994 46.0028 51.3718 -6.80681 12.3067 -166.183 -15.0016 3.18055e-015 -3.18055e-015 14.1841 0.924174 -2.11386 90 1.59028e-015 -3.18055e-015 -36.6738 -21.5872 175.917 -42.1135 -3.18056e-015 -7.95139e-016 7.17439 -17.9384 21.1434 90 0 -0 
105.47 88.7564 34.6334 102.087 -46.071 4.22773 1.42128 -1.08657 0.9298 2.86077 -2.14911 1.88693 2.86077 -2.14911 1.88692 -8.30907e-012 -9.0191e-006 -5.27751e-005 -24.5743 -12.6159 4.04565 -179.707 -0.867734 -71.3326 -1.24868 -12.3623 54.1241 -15.0042 6.36111e-015 -1.98785e-016 -24.1502 -31.1466 -31.0555 -178.606 5.04652 74.533 -15.6144 33.5996 -41.0775 -78.2161 -3.18055e-015 3.18055e-015 -47.2161 46.2645 51.5242 -5.05308 14.0795 -165.824 -12.9649 -1.59028e-014 -6.36111e-015 14.5037 1.17534 -2.42836 90 1.59028e-015 -1.27222e-014 -37.7524 -23.2058 175.584 -35.2146 -6.36111e-015 3.97569e-016 7.46441 -15.5354 18.1522 90 5.56597e-015 3.18055e-015 
103.921 88.3653 33.1245 102.699 -46.352 4.57512 1.47673 -1.20854 1.09926 2.97735 -2.38763 2.23019 2.97735 -2.38763 2.23018 -8.30748e-012 -9.0191e-006 -5.27751e-005 -26.7215 -13.4877 4.11154 -179.811 -0.574136 -71.7429 -4.63137 -9.59035 53.6483 -18.0977 -1.90833e-014 -1.59028e-015 -27.8163 -35.1191 -34.0486 -178.646 5.21631 75.431 -16.8904 36.7598 -39.7342 -77.7478 -3.18055e-015 -9.54166e-015 -47.2888 47.2088 52.2799 -3.34971 15.3608 -165.824 -11.6111 0 6.36111e-015 15.3274 1.60583 -2.95513 90 -7.95139e-016 6.36111e-015 -38.5724 -24.6417 174.751 -27.8202 3.18056e-015 -1.41634e-015 7.46988 -12.5431 14.5186 90 -1.3418e-015 -3.18055e-015 
